# xmcd
#
# Track frame offsets: 
#        150
#        15863
#        35129
#        50288
#        65764
#        90223
#        113100
#        132599
#        145790
#        169561
#        202904
#        226983
#        242690
#        267840
#        289543
#        309969
#        329997
#
# Disc length: 4767 seconds
#
# Revision: 0
# Processed by: cddbd v1.5.2PL0 Copyright (c) Steve Scherf et al.
# Submitted via: ExactAudioCopy v1.3
#
DISCID=e7129d11
DTITLE=Various Artist - Akella Presents - vol. 122 - Rockin' Blues  C
DTITLE=D2
DYEAR=2018
DGENRE=Blues
TTITLE0=Sterling Koch - Working Mans Blues
TTITLE1=Me And That Man - On The Road
TTITLE2=The Red Earth Blues Band - Same Shit
TTITLE3=Jimmy and the Poor Boys - Me and The Devil
TTITLE4=Green - Sweet Dreams
TTITLE5=Brett Wellman and the Stone Cold Blues Band - Breakfast in Bed
TTITLE6=The Sheepdogs - I'm Just Waiting for My Time
TTITLE7=The Delta Saints - Liar
TTITLE8=Jerry Waddel - She's Rockin' My Blues
TTITLE9=Jimmy Thackery - That Dog Won't Hunt
TTITLE10=Blind Creek Rhythm and Blues Review - Framed
TTITLE11=Bishop Black - Sugar Shack
TTITLE12=Seasick Steve - Freedom Road
TTITLE13=John Angus Blues Band - Your Bad News
TTITLE14=Tuomari Nurmio - Raivotautinen
TTITLE15=Bjorn Berge - Changes
TTITLE16=Watermelon Slim - Dark Genius
EXTD=
EXTT0=
EXTT1=
EXTT2=
EXTT3=
EXTT4=
EXTT5=
EXTT6=
EXTT7=
EXTT8=
EXTT9=
EXTT10=
EXTT11=
EXTT12=
EXTT13=
EXTT14=
EXTT15=
EXTT16=
PLAYORDER=
